<svg width="1024" height="1024" viewBox="0 0 1024 1024" fill="none" xmlns="http://www.w3.org/2000/svg">
  <defs>
    <linearGradient id="shell" x1="190" y1="118" x2="830" y2="900" gradientUnits="userSpaceOnUse">
      <stop offset="0" stop-color="#1c251f"/>
      <stop offset="0.52" stop-color="#070b08"/>
      <stop offset="1" stop-color="#16231a"/>
    </linearGradient>
    <linearGradient id="glass" x1="232" y1="188" x2="806" y2="748" gradientUnits="userSpaceOnUse">
      <stop offset="0" stop-color="#17231b"/>
      <stop offset="1" stop-color="#020403"/>
    </linearGradient>
    <linearGradient id="rim" x1="196" y1="142" x2="840" y2="844" gradientUnits="userSpaceOnUse">
      <stop offset="0" stop-color="#b6ffd0"/>
      <stop offset="0.33" stop-color="#76f7a4"/>
      <stop offset="0.68" stop-color="#49d8ff"/>
      <stop offset="1" stop-color="#9f7cff"/>
    </linearGradient>
    <linearGradient id="cpu" x1="282" y1="300" x2="748" y2="678" gradientUnits="userSpaceOnUse">
      <stop offset="0" stop-color="#9dffbd"/>
      <stop offset="0.54" stop-color="#4cd9ff"/>
      <stop offset="1" stop-color="#b98cff"/>
    </linearGradient>
    <filter id="softShadow" x="72" y="78" width="880" height="880" filterUnits="userSpaceOnUse" color-interpolation-filters="sRGB">
      <feDropShadow dx="0" dy="28" stdDeviation="40" flood-color="#000000" flood-opacity="0.45"/>
      <feDropShadow dx="0" dy="4" stdDeviation="8" flood-color="#8ff0b4" flood-opacity="0.22"/>
    </filter>
    <filter id="glow" x="142" y="116" width="740" height="742" filterUnits="userSpaceOnUse" color-interpolation-filters="sRGB">
      <feGaussianBlur stdDeviation="16" result="blur"/>
      <feColorMatrix in="blur" type="matrix" values="0 0 0 0 0.49 0 0 0 0 1 0 0 0 0 0.68 0 0 0 0.62 0"/>
      <feBlend in2="SourceGraphic" mode="screen"/>
    </filter>
  </defs>

  <rect width="1024" height="1024" rx="224" fill="#0a0d0b"/>
  <path d="M238 152H786C835.706 152 876 192.294 876 242V782C876 831.706 835.706 872 786 872H238C188.294 872 148 831.706 148 782V242C148 192.294 188.294 152 238 152Z" fill="url(#shell)" filter="url(#softShadow)"/>
  <path d="M238 152H786C835.706 152 876 192.294 876 242V782C876 831.706 835.706 872 786 872H238C188.294 872 148 831.706 148 782V242C148 192.294 188.294 152 238 152Z" stroke="url(#rim)" stroke-width="30"/>
  <path d="M228 228C228 201.49 249.49 180 276 180H748C774.51 180 796 201.49 796 228V684C796 710.51 774.51 732 748 732H276C249.49 732 228 710.51 228 684V228Z" fill="url(#glass)" stroke="#27382e" stroke-width="12"/>

  <g filter="url(#glow)">
    <path d="M286 584H342L390 446L458 640L530 330L598 582H650L698 468L738 584" stroke="url(#cpu)" stroke-width="30" stroke-linecap="round" stroke-linejoin="round"/>
    <path d="M284 706H740" stroke="#314238" stroke-width="18" stroke-linecap="round"/>
    <path d="M284 706H526" stroke="#8ff0b4" stroke-width="18" stroke-linecap="round"/>
  </g>

  <g opacity="0.94">
    <rect x="280" y="264" width="46" height="46" rx="12" fill="#8ff0b4"/>
    <rect x="360" y="264" width="46" height="46" rx="12" fill="#4dd8ff"/>
    <rect x="440" y="264" width="46" height="46" rx="12" fill="#b56cff"/>
    <rect x="520" y="264" width="46" height="46" rx="12" fill="#f4d35e"/>
  </g>

  <path d="M302 790H724" stroke="#8ff0b4" stroke-width="24" stroke-linecap="round" opacity="0.72"/>
  <circle cx="512" cy="790" r="34" fill="#0a0d0b" stroke="#8ff0b4" stroke-width="18"/>
  <path d="M230 201C248.5 184 264 180 302 180H724C761.5 180 783.5 190 796 214C721 188 327 183 230 201Z" fill="white" opacity="0.08"/>
</svg>
